<svg width="5801" height="16" viewBox="0 0 5801 16" fill="none" xmlns="http://www.w3.org/2000/svg">
<line x1="0.5" y1="2.18557e-08" x2="0.499999" y2="16" stroke="white"/>
<line x1="200.5" y1="2.18557e-08" x2="200.5" y2="16" stroke="white"/>
<line x1="400.5" y1="2.18557e-08" x2="400.5" y2="16" stroke="white"/>
<line x1="600.5" y1="2.18557e-08" x2="600.5" y2="16" stroke="white"/>
<line x1="800.5" y1="2.18557e-08" x2="800.5" y2="16" stroke="white"/>
<line x1="1000.5" y1="2.18557e-08" x2="1000.5" y2="16" stroke="white"/>
<line x1="1200.5" y1="2.18557e-08" x2="1200.5" y2="16" stroke="white"/>
<line x1="1400.5" y1="2.18557e-08" x2="1400.5" y2="16" stroke="white"/>
<line x1="1600.5" y1="2.18557e-08" x2="1600.5" y2="16" stroke="white"/>
<line x1="1800.5" y1="2.18557e-08" x2="1800.5" y2="16" stroke="white"/>
<line x1="2000.5" y1="2.18557e-08" x2="2000.5" y2="16" stroke="white"/>
<line x1="2200.5" y1="2.18557e-08" x2="2200.5" y2="16" stroke="white"/>
<line x1="2400.5" y1="2.18557e-08" x2="2400.5" y2="16" stroke="white"/>
<line x1="2600.5" y1="2.18557e-08" x2="2600.5" y2="16" stroke="white"/>
<line x1="2800.5" y1="2.18557e-08" x2="2800.5" y2="16" stroke="white"/>
<line x1="3000.5" y1="2.18557e-08" x2="3000.5" y2="16" stroke="white"/>
<line x1="3200.5" y1="2.18557e-08" x2="3200.5" y2="16" stroke="white"/>
<line x1="3400.5" y1="2.18557e-08" x2="3400.5" y2="16" stroke="white"/>
<line x1="3600.5" y1="2.18557e-08" x2="3600.5" y2="16" stroke="white"/>
<line x1="3800.5" y1="2.18557e-08" x2="3800.5" y2="16" stroke="white"/>
<line x1="4000.5" y1="2.18557e-08" x2="4000.5" y2="16" stroke="white"/>
<line x1="4200.5" y1="2.18557e-08" x2="4200.5" y2="16" stroke="white"/>
<line x1="4400.5" y1="2.18557e-08" x2="4400.5" y2="16" stroke="white"/>
<line x1="4600.5" y1="2.18557e-08" x2="4600.5" y2="16" stroke="white"/>
<line x1="4800.5" y1="2.18557e-08" x2="4800.5" y2="16" stroke="white"/>
<line x1="5000.5" y1="2.18557e-08" x2="5000.5" y2="16" stroke="white"/>
<line x1="5200.5" y1="2.18557e-08" x2="5200.5" y2="16" stroke="white"/>
<line x1="5400.5" y1="2.18557e-08" x2="5400.5" y2="16" stroke="white"/>
<line x1="5600.5" y1="2.18557e-08" x2="5600.5" y2="16" stroke="white"/>
<line x1="5800.5" y1="2.18557e-08" x2="5800.5" y2="16" stroke="white"/>
<line x1="0.5" y1="8" x2="0.5" y2="16" stroke="white"/>
<line x1="20.5" y1="8" x2="20.5" y2="16" stroke="white"/>
<line x1="40.5" y1="8" x2="40.5" y2="16" stroke="white"/>
<line x1="60.5" y1="8" x2="60.5" y2="16" stroke="white"/>
<line x1="80.5" y1="8" x2="80.5" y2="16" stroke="white"/>
<line x1="100.5" y1="8" x2="100.5" y2="16" stroke="white"/>
<line x1="120.5" y1="8" x2="120.5" y2="16" stroke="white"/>
<line x1="140.5" y1="8" x2="140.5" y2="16" stroke="white"/>
<line x1="160.5" y1="8" x2="160.5" y2="16" stroke="white"/>
<line x1="180.5" y1="8" x2="180.5" y2="16" stroke="white"/>
<line x1="200.5" y1="8" x2="200.5" y2="16" stroke="white"/>
<line x1="200.5" y1="8" x2="200.5" y2="16" stroke="white"/>
<line x1="220.5" y1="8" x2="220.5" y2="16" stroke="white"/>
<line x1="240.5" y1="8" x2="240.5" y2="16" stroke="white"/>
<line x1="260.5" y1="8" x2="260.5" y2="16" stroke="white"/>
<line x1="280.5" y1="8" x2="280.5" y2="16" stroke="white"/>
<line x1="300.5" y1="8" x2="300.5" y2="16" stroke="white"/>
<line x1="320.5" y1="8" x2="320.5" y2="16" stroke="white"/>
<line x1="340.5" y1="8" x2="340.5" y2="16" stroke="white"/>
<line x1="360.5" y1="8" x2="360.5" y2="16" stroke="white"/>
<line x1="380.5" y1="8" x2="380.5" y2="16" stroke="white"/>
<line x1="400.5" y1="8" x2="400.5" y2="16" stroke="white"/>
<line x1="400.5" y1="8" x2="400.5" y2="16" stroke="white"/>
<line x1="420.5" y1="8" x2="420.5" y2="16" stroke="white"/>
<line x1="440.5" y1="8" x2="440.5" y2="16" stroke="white"/>
<line x1="460.5" y1="8" x2="460.5" y2="16" stroke="white"/>
<line x1="480.5" y1="8" x2="480.5" y2="16" stroke="white"/>
<line x1="500.5" y1="8" x2="500.5" y2="16" stroke="white"/>
<line x1="520.5" y1="8" x2="520.5" y2="16" stroke="white"/>
<line x1="540.5" y1="8" x2="540.5" y2="16" stroke="white"/>
<line x1="560.5" y1="8" x2="560.5" y2="16" stroke="white"/>
<line x1="580.5" y1="8" x2="580.5" y2="16" stroke="white"/>
<line x1="600.5" y1="8" x2="600.5" y2="16" stroke="white"/>
<line x1="600.5" y1="8" x2="600.5" y2="16" stroke="white"/>
<line x1="620.5" y1="8" x2="620.5" y2="16" stroke="white"/>
<line x1="640.5" y1="8" x2="640.5" y2="16" stroke="white"/>
<line x1="660.5" y1="8" x2="660.5" y2="16" stroke="white"/>
<line x1="680.5" y1="8" x2="680.5" y2="16" stroke="white"/>
<line x1="700.5" y1="8" x2="700.5" y2="16" stroke="white"/>
<line x1="720.5" y1="8" x2="720.5" y2="16" stroke="white"/>
<line x1="740.5" y1="8" x2="740.5" y2="16" stroke="white"/>
<line x1="760.5" y1="8" x2="760.5" y2="16" stroke="white"/>
<line x1="780.5" y1="8" x2="780.5" y2="16" stroke="white"/>
<line x1="800.5" y1="8" x2="800.5" y2="16" stroke="white"/>
<line x1="800.5" y1="8" x2="800.5" y2="16" stroke="white"/>
<line x1="820.5" y1="8" x2="820.5" y2="16" stroke="white"/>
<line x1="840.5" y1="8" x2="840.5" y2="16" stroke="white"/>
<line x1="860.5" y1="8" x2="860.5" y2="16" stroke="white"/>
<line x1="880.5" y1="8" x2="880.5" y2="16" stroke="white"/>
<line x1="900.5" y1="8" x2="900.5" y2="16" stroke="white"/>
<line x1="920.5" y1="8" x2="920.5" y2="16" stroke="white"/>
<line x1="940.5" y1="8" x2="940.5" y2="16" stroke="white"/>
<line x1="960.5" y1="8" x2="960.5" y2="16" stroke="white"/>
<line x1="980.5" y1="8" x2="980.5" y2="16" stroke="white"/>
<line x1="1000.5" y1="8" x2="1000.5" y2="16" stroke="white"/>
<line x1="1000.5" y1="8" x2="1000.5" y2="16" stroke="white"/>
<line x1="1020.5" y1="8" x2="1020.5" y2="16" stroke="white"/>
<line x1="1040.5" y1="8" x2="1040.5" y2="16" stroke="white"/>
<line x1="1060.5" y1="8" x2="1060.5" y2="16" stroke="white"/>
<line x1="1080.5" y1="8" x2="1080.5" y2="16" stroke="white"/>
<line x1="1100.5" y1="8" x2="1100.5" y2="16" stroke="white"/>
<line x1="1120.5" y1="8" x2="1120.5" y2="16" stroke="white"/>
<line x1="1140.5" y1="8" x2="1140.5" y2="16" stroke="white"/>
<line x1="1160.5" y1="8" x2="1160.5" y2="16" stroke="white"/>
<line x1="1180.5" y1="8" x2="1180.5" y2="16" stroke="white"/>
<line x1="1200.5" y1="8" x2="1200.5" y2="16" stroke="white"/>
<line x1="1200.5" y1="8" x2="1200.5" y2="16" stroke="white"/>
<line x1="1220.5" y1="8" x2="1220.5" y2="16" stroke="white"/>
<line x1="1240.5" y1="8" x2="1240.5" y2="16" stroke="white"/>
<line x1="1260.5" y1="8" x2="1260.5" y2="16" stroke="white"/>
<line x1="1280.5" y1="8" x2="1280.5" y2="16" stroke="white"/>
<line x1="1300.5" y1="8" x2="1300.5" y2="16" stroke="white"/>
<line x1="1320.5" y1="8" x2="1320.5" y2="16" stroke="white"/>
<line x1="1340.5" y1="8" x2="1340.5" y2="16" stroke="white"/>
<line x1="1360.5" y1="8" x2="1360.5" y2="16" stroke="white"/>
<line x1="1380.5" y1="8" x2="1380.5" y2="16" stroke="white"/>
<line x1="1400.5" y1="8" x2="1400.5" y2="16" stroke="white"/>
<line x1="1400.5" y1="8" x2="1400.5" y2="16" stroke="white"/>
<line x1="1420.5" y1="8" x2="1420.5" y2="16" stroke="white"/>
<line x1="1440.5" y1="8" x2="1440.5" y2="16" stroke="white"/>
<line x1="1460.5" y1="8" x2="1460.5" y2="16" stroke="white"/>
<line x1="1480.5" y1="8" x2="1480.5" y2="16" stroke="white"/>
<line x1="1500.5" y1="8" x2="1500.5" y2="16" stroke="white"/>
<line x1="1520.5" y1="8" x2="1520.5" y2="16" stroke="white"/>
<line x1="1540.5" y1="8" x2="1540.5" y2="16" stroke="white"/>
<line x1="1560.5" y1="8" x2="1560.5" y2="16" stroke="white"/>
<line x1="1580.5" y1="8" x2="1580.5" y2="16" stroke="white"/>
<line x1="1600.5" y1="8" x2="1600.5" y2="16" stroke="white"/>
<line x1="1600.5" y1="8" x2="1600.5" y2="16" stroke="white"/>
<line x1="1620.5" y1="8" x2="1620.5" y2="16" stroke="white"/>
<line x1="1640.5" y1="8" x2="1640.5" y2="16" stroke="white"/>
<line x1="1660.5" y1="8" x2="1660.5" y2="16" stroke="white"/>
<line x1="1680.5" y1="8" x2="1680.5" y2="16" stroke="white"/>
<line x1="1700.5" y1="8" x2="1700.5" y2="16" stroke="white"/>
<line x1="1720.5" y1="8" x2="1720.5" y2="16" stroke="white"/>
<line x1="1740.5" y1="8" x2="1740.5" y2="16" stroke="white"/>
<line x1="1760.5" y1="8" x2="1760.5" y2="16" stroke="white"/>
<line x1="1780.5" y1="8" x2="1780.5" y2="16" stroke="white"/>
<line x1="1800.5" y1="8" x2="1800.5" y2="16" stroke="white"/>
<line x1="1800.5" y1="8" x2="1800.5" y2="16" stroke="white"/>
<line x1="1820.5" y1="8" x2="1820.5" y2="16" stroke="white"/>
<line x1="1840.5" y1="8" x2="1840.5" y2="16" stroke="white"/>
<line x1="1860.5" y1="8" x2="1860.5" y2="16" stroke="white"/>
<line x1="1880.5" y1="8" x2="1880.5" y2="16" stroke="white"/>
<line x1="1900.5" y1="8" x2="1900.5" y2="16" stroke="white"/>
<line x1="1920.5" y1="8" x2="1920.5" y2="16" stroke="white"/>
<line x1="1940.5" y1="8" x2="1940.5" y2="16" stroke="white"/>
<line x1="1960.5" y1="8" x2="1960.5" y2="16" stroke="white"/>
<line x1="1980.5" y1="8" x2="1980.5" y2="16" stroke="white"/>
<line x1="2000.5" y1="8" x2="2000.5" y2="16" stroke="white"/>
<line x1="2000.5" y1="8" x2="2000.5" y2="16" stroke="white"/>
<line x1="2020.5" y1="8" x2="2020.5" y2="16" stroke="white"/>
<line x1="2040.5" y1="8" x2="2040.5" y2="16" stroke="white"/>
<line x1="2060.5" y1="8" x2="2060.5" y2="16" stroke="white"/>
<line x1="2080.5" y1="8" x2="2080.5" y2="16" stroke="white"/>
<line x1="2100.5" y1="8" x2="2100.5" y2="16" stroke="white"/>
<line x1="2120.5" y1="8" x2="2120.5" y2="16" stroke="white"/>
<line x1="2140.5" y1="8" x2="2140.5" y2="16" stroke="white"/>
<line x1="2160.5" y1="8" x2="2160.5" y2="16" stroke="white"/>
<line x1="2180.5" y1="8" x2="2180.5" y2="16" stroke="white"/>
<line x1="2200.5" y1="8" x2="2200.5" y2="16" stroke="white"/>
<line x1="2200.5" y1="8" x2="2200.5" y2="16" stroke="white"/>
<line x1="2220.5" y1="8" x2="2220.5" y2="16" stroke="white"/>
<line x1="2240.5" y1="8" x2="2240.5" y2="16" stroke="white"/>
<line x1="2260.5" y1="8" x2="2260.5" y2="16" stroke="white"/>
<line x1="2280.5" y1="8" x2="2280.5" y2="16" stroke="white"/>
<line x1="2300.5" y1="8" x2="2300.5" y2="16" stroke="white"/>
<line x1="2320.5" y1="8" x2="2320.5" y2="16" stroke="white"/>
<line x1="2340.5" y1="8" x2="2340.5" y2="16" stroke="white"/>
<line x1="2360.5" y1="8" x2="2360.5" y2="16" stroke="white"/>
<line x1="2380.5" y1="8" x2="2380.5" y2="16" stroke="white"/>
<line x1="2400.5" y1="8" x2="2400.5" y2="16" stroke="white"/>
<line x1="2400.5" y1="8" x2="2400.5" y2="16" stroke="white"/>
<line x1="2420.5" y1="8" x2="2420.5" y2="16" stroke="white"/>
<line x1="2440.5" y1="8" x2="2440.5" y2="16" stroke="white"/>
<line x1="2460.5" y1="8" x2="2460.5" y2="16" stroke="white"/>
<line x1="2480.5" y1="8" x2="2480.5" y2="16" stroke="white"/>
<line x1="2500.5" y1="8" x2="2500.5" y2="16" stroke="white"/>
<line x1="2520.5" y1="8" x2="2520.5" y2="16" stroke="white"/>
<line x1="2540.5" y1="8" x2="2540.5" y2="16" stroke="white"/>
<line x1="2560.5" y1="8" x2="2560.5" y2="16" stroke="white"/>
<line x1="2580.5" y1="8" x2="2580.5" y2="16" stroke="white"/>
<line x1="2600.5" y1="8" x2="2600.5" y2="16" stroke="white"/>
<line x1="2600.5" y1="8" x2="2600.5" y2="16" stroke="white"/>
<line x1="2620.5" y1="8" x2="2620.5" y2="16" stroke="white"/>
<line x1="2640.5" y1="8" x2="2640.5" y2="16" stroke="white"/>
<line x1="2660.5" y1="8" x2="2660.5" y2="16" stroke="white"/>
<line x1="2680.5" y1="8" x2="2680.5" y2="16" stroke="white"/>
<line x1="2700.5" y1="8" x2="2700.5" y2="16" stroke="white"/>
<line x1="2720.5" y1="8" x2="2720.5" y2="16" stroke="white"/>
<line x1="2740.5" y1="8" x2="2740.5" y2="16" stroke="white"/>
<line x1="2760.5" y1="8" x2="2760.5" y2="16" stroke="white"/>
<line x1="2780.5" y1="8" x2="2780.5" y2="16" stroke="white"/>
<line x1="2800.5" y1="8" x2="2800.5" y2="16" stroke="white"/>
<line x1="2800.5" y1="8" x2="2800.5" y2="16" stroke="white"/>
<line x1="2820.5" y1="8" x2="2820.5" y2="16" stroke="white"/>
<line x1="2840.5" y1="8" x2="2840.5" y2="16" stroke="white"/>
<line x1="2860.5" y1="8" x2="2860.5" y2="16" stroke="white"/>
<line x1="2880.5" y1="8" x2="2880.5" y2="16" stroke="white"/>
<line x1="2900.5" y1="8" x2="2900.5" y2="16" stroke="white"/>
<line x1="2920.5" y1="8" x2="2920.5" y2="16" stroke="white"/>
<line x1="2940.5" y1="8" x2="2940.5" y2="16" stroke="white"/>
<line x1="2960.5" y1="8" x2="2960.5" y2="16" stroke="white"/>
<line x1="2980.5" y1="8" x2="2980.5" y2="16" stroke="white"/>
<line x1="3000.5" y1="8" x2="3000.5" y2="16" stroke="white"/>
<line x1="3000.5" y1="8" x2="3000.5" y2="16" stroke="white"/>
<line x1="3020.5" y1="8" x2="3020.5" y2="16" stroke="white"/>
<line x1="3040.5" y1="8" x2="3040.5" y2="16" stroke="white"/>
<line x1="3060.5" y1="8" x2="3060.5" y2="16" stroke="white"/>
<line x1="3080.5" y1="8" x2="3080.5" y2="16" stroke="white"/>
<line x1="3100.5" y1="8" x2="3100.5" y2="16" stroke="white"/>
<line x1="3120.5" y1="8" x2="3120.5" y2="16" stroke="white"/>
<line x1="3140.5" y1="8" x2="3140.5" y2="16" stroke="white"/>
<line x1="3160.5" y1="8" x2="3160.5" y2="16" stroke="white"/>
<line x1="3180.5" y1="8" x2="3180.5" y2="16" stroke="white"/>
<line x1="3200.5" y1="8" x2="3200.5" y2="16" stroke="white"/>
<line x1="3200.5" y1="8" x2="3200.5" y2="16" stroke="white"/>
<line x1="3220.5" y1="8" x2="3220.5" y2="16" stroke="white"/>
<line x1="3240.5" y1="8" x2="3240.5" y2="16" stroke="white"/>
<line x1="3260.5" y1="8" x2="3260.5" y2="16" stroke="white"/>
<line x1="3280.5" y1="8" x2="3280.5" y2="16" stroke="white"/>
<line x1="3300.5" y1="8" x2="3300.5" y2="16" stroke="white"/>
<line x1="3320.5" y1="8" x2="3320.5" y2="16" stroke="white"/>
<line x1="3340.5" y1="8" x2="3340.5" y2="16" stroke="white"/>
<line x1="3360.5" y1="8" x2="3360.5" y2="16" stroke="white"/>
<line x1="3380.5" y1="8" x2="3380.5" y2="16" stroke="white"/>
<line x1="3400.5" y1="8" x2="3400.5" y2="16" stroke="white"/>
<line x1="3400.5" y1="8" x2="3400.5" y2="16" stroke="white"/>
<line x1="3420.5" y1="8" x2="3420.5" y2="16" stroke="white"/>
<line x1="3440.5" y1="8" x2="3440.5" y2="16" stroke="white"/>
<line x1="3460.5" y1="8" x2="3460.5" y2="16" stroke="white"/>
<line x1="3480.5" y1="8" x2="3480.5" y2="16" stroke="white"/>
<line x1="3500.5" y1="8" x2="3500.5" y2="16" stroke="white"/>
<line x1="3520.5" y1="8" x2="3520.5" y2="16" stroke="white"/>
<line x1="3540.5" y1="8" x2="3540.5" y2="16" stroke="white"/>
<line x1="3560.5" y1="8" x2="3560.5" y2="16" stroke="white"/>
<line x1="3580.5" y1="8" x2="3580.5" y2="16" stroke="white"/>
<line x1="3600.5" y1="8" x2="3600.5" y2="16" stroke="white"/>
<line x1="3600.5" y1="8" x2="3600.5" y2="16" stroke="white"/>
<line x1="3620.5" y1="8" x2="3620.5" y2="16" stroke="white"/>
<line x1="3640.5" y1="8" x2="3640.5" y2="16" stroke="white"/>
<line x1="3660.5" y1="8" x2="3660.5" y2="16" stroke="white"/>
<line x1="3680.5" y1="8" x2="3680.5" y2="16" stroke="white"/>
<line x1="3700.5" y1="8" x2="3700.5" y2="16" stroke="white"/>
<line x1="3720.5" y1="8" x2="3720.5" y2="16" stroke="white"/>
<line x1="3740.5" y1="8" x2="3740.5" y2="16" stroke="white"/>
<line x1="3760.5" y1="8" x2="3760.5" y2="16" stroke="white"/>
<line x1="3780.5" y1="8" x2="3780.5" y2="16" stroke="white"/>
<line x1="3800.5" y1="8" x2="3800.5" y2="16" stroke="white"/>
<line x1="3800.5" y1="8" x2="3800.5" y2="16" stroke="white"/>
<line x1="3820.5" y1="8" x2="3820.5" y2="16" stroke="white"/>
<line x1="3840.5" y1="8" x2="3840.5" y2="16" stroke="white"/>
<line x1="3860.5" y1="8" x2="3860.5" y2="16" stroke="white"/>
<line x1="3880.5" y1="8" x2="3880.5" y2="16" stroke="white"/>
<line x1="3900.5" y1="8" x2="3900.5" y2="16" stroke="white"/>
<line x1="3920.5" y1="8" x2="3920.5" y2="16" stroke="white"/>
<line x1="3940.5" y1="8" x2="3940.5" y2="16" stroke="white"/>
<line x1="3960.5" y1="8" x2="3960.5" y2="16" stroke="white"/>
<line x1="3980.5" y1="8" x2="3980.5" y2="16" stroke="white"/>
<line x1="4000.5" y1="8" x2="4000.5" y2="16" stroke="white"/>
<line x1="4000.5" y1="8" x2="4000.5" y2="16" stroke="white"/>
<line x1="4020.5" y1="8" x2="4020.5" y2="16" stroke="white"/>
<line x1="4040.5" y1="8" x2="4040.5" y2="16" stroke="white"/>
<line x1="4060.5" y1="8" x2="4060.5" y2="16" stroke="white"/>
<line x1="4080.5" y1="8" x2="4080.5" y2="16" stroke="white"/>
<line x1="4100.5" y1="8" x2="4100.5" y2="16" stroke="white"/>
<line x1="4120.5" y1="8" x2="4120.5" y2="16" stroke="white"/>
<line x1="4140.5" y1="8" x2="4140.5" y2="16" stroke="white"/>
<line x1="4160.5" y1="8" x2="4160.5" y2="16" stroke="white"/>
<line x1="4180.5" y1="8" x2="4180.5" y2="16" stroke="white"/>
<line x1="4200.5" y1="8" x2="4200.5" y2="16" stroke="white"/>
<line x1="4200.5" y1="8" x2="4200.5" y2="16" stroke="white"/>
<line x1="4220.5" y1="8" x2="4220.5" y2="16" stroke="white"/>
<line x1="4240.5" y1="8" x2="4240.5" y2="16" stroke="white"/>
<line x1="4260.5" y1="8" x2="4260.5" y2="16" stroke="white"/>
<line x1="4280.5" y1="8" x2="4280.5" y2="16" stroke="white"/>
<line x1="4300.5" y1="8" x2="4300.5" y2="16" stroke="white"/>
<line x1="4320.5" y1="8" x2="4320.5" y2="16" stroke="white"/>
<line x1="4340.5" y1="8" x2="4340.5" y2="16" stroke="white"/>
<line x1="4360.5" y1="8" x2="4360.5" y2="16" stroke="white"/>
<line x1="4380.5" y1="8" x2="4380.5" y2="16" stroke="white"/>
<line x1="4400.5" y1="8" x2="4400.5" y2="16" stroke="white"/>
<line x1="4400.5" y1="8" x2="4400.5" y2="16" stroke="white"/>
<line x1="4420.5" y1="8" x2="4420.5" y2="16" stroke="white"/>
<line x1="4440.5" y1="8" x2="4440.5" y2="16" stroke="white"/>
<line x1="4460.5" y1="8" x2="4460.5" y2="16" stroke="white"/>
<line x1="4480.5" y1="8" x2="4480.5" y2="16" stroke="white"/>
<line x1="4500.5" y1="8" x2="4500.5" y2="16" stroke="white"/>
<line x1="4520.5" y1="8" x2="4520.5" y2="16" stroke="white"/>
<line x1="4540.5" y1="8" x2="4540.5" y2="16" stroke="white"/>
<line x1="4560.5" y1="8" x2="4560.5" y2="16" stroke="white"/>
<line x1="4580.5" y1="8" x2="4580.5" y2="16" stroke="white"/>
<line x1="4600.5" y1="8" x2="4600.5" y2="16" stroke="white"/>
<line x1="4600.5" y1="8" x2="4600.5" y2="16" stroke="white"/>
<line x1="4620.5" y1="8" x2="4620.5" y2="16" stroke="white"/>
<line x1="4640.5" y1="8" x2="4640.5" y2="16" stroke="white"/>
<line x1="4660.5" y1="8" x2="4660.5" y2="16" stroke="white"/>
<line x1="4680.5" y1="8" x2="4680.5" y2="16" stroke="white"/>
<line x1="4700.5" y1="8" x2="4700.5" y2="16" stroke="white"/>
<line x1="4720.5" y1="8" x2="4720.5" y2="16" stroke="white"/>
<line x1="4740.5" y1="8" x2="4740.5" y2="16" stroke="white"/>
<line x1="4760.5" y1="8" x2="4760.5" y2="16" stroke="white"/>
<line x1="4780.5" y1="8" x2="4780.5" y2="16" stroke="white"/>
<line x1="4800.5" y1="8" x2="4800.5" y2="16" stroke="white"/>
<line x1="4800.5" y1="8" x2="4800.5" y2="16" stroke="white"/>
<line x1="4820.5" y1="8" x2="4820.5" y2="16" stroke="white"/>
<line x1="4840.5" y1="8" x2="4840.5" y2="16" stroke="white"/>
<line x1="4860.5" y1="8" x2="4860.5" y2="16" stroke="white"/>
<line x1="4880.5" y1="8" x2="4880.5" y2="16" stroke="white"/>
<line x1="4900.5" y1="8" x2="4900.5" y2="16" stroke="white"/>
<line x1="4920.5" y1="8" x2="4920.5" y2="16" stroke="white"/>
<line x1="4940.5" y1="8" x2="4940.5" y2="16" stroke="white"/>
<line x1="4960.5" y1="8" x2="4960.5" y2="16" stroke="white"/>
<line x1="4980.5" y1="8" x2="4980.5" y2="16" stroke="white"/>
<line x1="5000.5" y1="8" x2="5000.5" y2="16" stroke="white"/>
<line x1="5000.5" y1="8" x2="5000.5" y2="16" stroke="white"/>
<line x1="5020.5" y1="8" x2="5020.5" y2="16" stroke="white"/>
<line x1="5040.5" y1="8" x2="5040.5" y2="16" stroke="white"/>
<line x1="5060.5" y1="8" x2="5060.5" y2="16" stroke="white"/>
<line x1="5080.5" y1="8" x2="5080.5" y2="16" stroke="white"/>
<line x1="5100.5" y1="8" x2="5100.5" y2="16" stroke="white"/>
<line x1="5120.5" y1="8" x2="5120.5" y2="16" stroke="white"/>
<line x1="5140.5" y1="8" x2="5140.5" y2="16" stroke="white"/>
<line x1="5160.5" y1="8" x2="5160.5" y2="16" stroke="white"/>
<line x1="5180.5" y1="8" x2="5180.5" y2="16" stroke="white"/>
<line x1="5200.5" y1="8" x2="5200.5" y2="16" stroke="white"/>
<line x1="5200.5" y1="8" x2="5200.5" y2="16" stroke="white"/>
<line x1="5220.5" y1="8" x2="5220.5" y2="16" stroke="white"/>
<line x1="5240.5" y1="8" x2="5240.5" y2="16" stroke="white"/>
<line x1="5260.5" y1="8" x2="5260.5" y2="16" stroke="white"/>
<line x1="5280.5" y1="8" x2="5280.5" y2="16" stroke="white"/>
<line x1="5300.5" y1="8" x2="5300.5" y2="16" stroke="white"/>
<line x1="5320.5" y1="8" x2="5320.5" y2="16" stroke="white"/>
<line x1="5340.5" y1="8" x2="5340.5" y2="16" stroke="white"/>
<line x1="5360.5" y1="8" x2="5360.5" y2="16" stroke="white"/>
<line x1="5380.5" y1="8" x2="5380.5" y2="16" stroke="white"/>
<line x1="5400.5" y1="8" x2="5400.5" y2="16" stroke="white"/>
<line x1="5400.5" y1="8" x2="5400.5" y2="16" stroke="white"/>
<line x1="5420.5" y1="8" x2="5420.5" y2="16" stroke="white"/>
<line x1="5440.5" y1="8" x2="5440.5" y2="16" stroke="white"/>
<line x1="5460.5" y1="8" x2="5460.5" y2="16" stroke="white"/>
<line x1="5480.5" y1="8" x2="5480.5" y2="16" stroke="white"/>
<line x1="5500.5" y1="8" x2="5500.5" y2="16" stroke="white"/>
<line x1="5520.5" y1="8" x2="5520.5" y2="16" stroke="white"/>
<line x1="5540.5" y1="8" x2="5540.5" y2="16" stroke="white"/>
<line x1="5560.5" y1="8" x2="5560.5" y2="16" stroke="white"/>
<line x1="5580.5" y1="8" x2="5580.5" y2="16" stroke="white"/>
<line x1="5600.5" y1="8" x2="5600.5" y2="16" stroke="white"/>
<line x1="5600.5" y1="8" x2="5600.5" y2="16" stroke="white"/>
<line x1="5620.5" y1="8" x2="5620.5" y2="16" stroke="white"/>
<line x1="5640.5" y1="8" x2="5640.5" y2="16" stroke="white"/>
<line x1="5660.5" y1="8" x2="5660.5" y2="16" stroke="white"/>
<line x1="5680.5" y1="8" x2="5680.5" y2="16" stroke="white"/>
<line x1="5700.5" y1="8" x2="5700.5" y2="16" stroke="white"/>
<line x1="5720.5" y1="8" x2="5720.5" y2="16" stroke="white"/>
<line x1="5740.5" y1="8" x2="5740.5" y2="16" stroke="white"/>
<line x1="5760.5" y1="8" x2="5760.5" y2="16" stroke="white"/>
<line x1="5780.5" y1="8" x2="5780.5" y2="16" stroke="white"/>
<line x1="5800.5" y1="8" x2="5800.5" y2="16" stroke="white"/>
</svg>
